HIERARCHY
ROOT Hips
{
	OFFSET -3.958830 18.904000 13.208200
	CHANNELS 6 Xposition Yposition Zposition Zrotation Yrotation Xrotation 
	JOINT LHipJoint
	{
		OFFSET 0.000000 0.000000 0.000000
		CHANNELS 3 Zrotation Yrotation Xrotation
		JOINT LeftUpLeg
		{
			OFFSET 1.800000 -1.400000 0.085000
			CHANNELS 3 Zrotation Yrotation Xrotation
			JOINT LeftLeg
			{
				OFFSET 2.215000 -6.000000 0.000000
				CHANNELS 3 Zrotation Yrotation Xrotation
				JOINT LeftFoot
				{
					OFFSET 2.500000 -6.900000 0.000000
					CHANNELS 3 Zrotation Yrotation Xrotation
					JOINT LeftToeBase
					{
						OFFSET 0.200000 -0.500000 1.950000
						CHANNELS 3 Zrotation Yrotation Xrotation
						End Site
						{
							OFFSET 0.000000 0.000000 0.000000
						}
					}
				}
			}
		}
	}
	JOINT RHipJoint
	{
		OFFSET 0.000000 0.000000 0.000000
		CHANNELS 3 Zrotation Yrotation Xrotation
		JOINT RightUpLeg
		{
			OFFSET -1.800000 -1.400000 0.085000
			CHANNELS 3 Zrotation Yrotation Xrotation
			JOINT RightLeg
			{
				OFFSET -2.215000 -6.000000 0.000000
				CHANNELS 3 Zrotation Yrotation Xrotation
				JOINT RightFoot
				{
					OFFSET -2.500000 -6.900000 0.000000
					CHANNELS 3 Zrotation Yrotation Xrotation
					JOINT RightToeBase
					{
						OFFSET -0.200000 -0.500000 1.950000
						CHANNELS 3 Zrotation Yrotation Xrotation
						End Site
						{
							OFFSET 0.000000 0.000000 0.000000
						}
					}
				}
			}
		}
	}
	JOINT LowerBack
	{
		OFFSET 0.000000 0.000000 0.000000
		CHANNELS 3 Zrotation Yrotation Xrotation
		JOINT Spine
		{
			OFFSET -0.087000 1.940000 -0.288900
			CHANNELS 3 Zrotation Yrotation Xrotation
			JOINT Spine1
			{
				OFFSET 0.000000 1.950000 0.060000
				CHANNELS 3 Zrotation Yrotation Xrotation
				JOINT Neck
				{
					OFFSET 0.000000 0.000000 0.000000
					CHANNELS 3 Zrotation Yrotation Xrotation
					JOINT Neck1
					{
						OFFSET 0.000000 1.600000 0.340000
						CHANNELS 3 Zrotation Yrotation Xrotation
						JOINT Head
						{
							OFFSET 0.000000 1.667000 -0.240000
							CHANNELS 3 Zrotation Yrotation Xrotation
							End Site
							{
								OFFSET 0.000000 0.000000 0.000000
							}
						}
					}
				}
				JOINT LeftShoulder
				{
					OFFSET 0.000000 0.000000 0.000000
					CHANNELS 3 Zrotation Yrotation Xrotation
					JOINT LeftArm
					{
						OFFSET 2.700000 1.550000 -0.730000
						CHANNELS 3 Zrotation Yrotation Xrotation
						JOINT LeftForeArm
						{
							OFFSET 5.450000 0.000000 0.000000
							CHANNELS 3 Zrotation Yrotation Xrotation
							JOINT LeftHand
							{
								OFFSET 3.450000 0.000000 0.000000
								CHANNELS 3 Zrotation Yrotation Xrotation
								JOINT LeftHandIndex1
								{
									OFFSET 0.750000 0.000000 0.000000
									CHANNELS 3 Zrotation Yrotation Xrotation
									End Site
									{
										OFFSET 0.000000 0.000000 0.000000
									}
								}
							}
						}
					}
				}
				JOINT RightShoulder
				{
					OFFSET 0.000000 0.000000 0.000000
					CHANNELS 3 Zrotation Yrotation Xrotation
					JOINT RightArm
					{
						OFFSET -2.700000 1.550000 -0.730000
						CHANNELS 3 Zrotation Yrotation Xrotation
						JOINT RightForeArm
						{
							OFFSET -5.450000 0.000000 0.000000
							CHANNELS 3 Zrotation Yrotation Xrotation
							JOINT RightHand
							{
								OFFSET -3.450000 0.000000 0.000000
								CHANNELS 3 Zrotation Yrotation Xrotation
								JOINT RightHandIndex1
								{
									OFFSET -0.750000 0.000000 0.000000
									CHANNELS 3 Zrotation Yrotation Xrotation
									End Site
									{
										OFFSET 0.000000 0.000000 0.000000
									}
								}
							}
						}
					}
				}
			}
		}
	}
}
MOTION
Frames: 14
Frame Time: 0.016667
-0.776090 16.387210 -2.555380 2.010905 10.069365 -7.033215 -15.040456 13.306154 3.424019 9.005302 -4.116294 -12.707342 -14.977458 13.664464 33.688546 0.199440 7.733339 1.656895 0.200910 -0.028610 0.026310 18.243116 -10.268154 3.543916 -13.529561 4.061083 -34.237452 9.905383 -11.580950 40.750275 -0.582833 -5.992739 2.251098 -0.019490 -0.071690 -0.285310 -3.916354 -2.303188 -8.684427 8.337224 -4.129137 22.683773 -8.305723 -1.410330 -5.356228 1.913973 -8.875260 -12.050419 -25.331588 8.787909 51.822430 19.582850 -7.163540 -18.381510 -41.093156 -11.548437 3.150453 -48.653891 -4.213302 -16.099591 54.158743 -49.013303 -28.560351 -3.312767 2.418891 0.790030 -0.404760 -0.009220 -0.046390 37.196512 18.623986 9.901997 46.217562 -3.231481 -6.958754 -8.257260 9.502859 -0.334326 2.324802 -0.836630 -0.290570 0.373760 0.221520 -0.272520 
-0.799390 16.379870 -2.527910 1.972489 9.661751 -6.869221 -15.078498 13.353326 3.406990 9.133391 -4.024118 -12.822824 -14.488779 13.549617 33.788005 0.180022 7.698433 1.667675 0.191410 -0.042820 0.037500 18.197421 -10.266107 3.556438 -13.815344 4.033394 -34.080733 10.217715 -11.614530 40.371530 -0.566056 -5.982802 2.255962 -0.023920 -0.072490 -0.281700 -3.787407 -2.370577 -8.712236 7.247652 -3.655375 22.073845 -7.407502 -1.182135 -5.035720 1.946883 -8.241444 -11.922741 -23.441773 8.047303 51.876515 18.178480 -6.735330 -17.362560 -40.617641 -11.638496 3.281159 -49.367377 -4.142984 -15.945459 52.798202 -48.231910 -27.444403 -3.315431 2.430509 0.776480 -0.384320 -0.020120 -0.056400 36.778274 18.502312 9.692276 46.642694 -2.865427 -6.937678 -8.053752 9.683339 -0.383558 2.318793 -0.846984 -0.294400 0.362980 0.223540 -0.285040 
-0.844230 16.366640 -2.471630 2.053930 9.345026 -6.331942 -15.170213 13.378569 3.393265 9.512774 -4.041870 -13.459072 -13.892821 13.556698 34.350108 0.181784 7.739567 1.665830 0.169610 -0.064750 0.037360 18.109703 -10.234338 3.547779 -14.851595 3.717515 -33.700072 11.229782 -11.938653 39.504786 -0.541536 -6.029212 2.250116 -0.030570 -0.049080 -0.281660 -3.516519 -2.492634 -8.735757 4.870686 -2.943059 20.460600 -5.396566 -1.028141 -4.255260 1.781122 -7.167035 -11.510535 -20.229155 6.862595 51.162788 16.079310 -6.010330 -15.179950 -38.877041 -11.473481 3.461551 -51.302343 -4.208742 -15.428855 49.698853 -46.581941 -25.065188 -3.307910 2.450144 0.735080 -0.337690 -0.050930 -0.055730 35.667248 17.836108 9.059916 47.752164 -1.980941 -7.080600 -8.210103 10.472091 -0.596409 2.306821 -0.876439 -0.302860 0.357230 0.222650 -0.291600 
-0.891300 16.353090 -2.401590 1.751825 9.001612 -5.619344 -15.257965 13.387448 3.317089 9.941273 -3.967935 -14.111305 -12.774181 13.292915 34.736963 0.169443 7.678403 1.712013 0.146060 -0.089940 0.037760 18.035367 -10.225309 3.532035 -15.637328 3.391667 -33.056233 12.756797 -12.275586 37.889907 -0.500061 -6.025568 2.271523 -0.038070 -0.015420 -0.281920 -3.266897 -2.520678 -8.664871 2.892821 -2.398984 18.320925 -3.318098 -0.989106 -3.611952 1.567945 -5.765405 -10.462435 -16.118111 5.241396 49.311287 13.425130 -5.110070 -12.533170 -36.653859 -10.161442 3.310022 -53.356638 -4.222029 -14.559318 44.849222 -45.875278 -22.174044 -3.303308 2.476433 0.670150 -0.274300 -0.097790 -0.047200 34.093148 15.731308 7.756734 49.077395 -0.862981 -7.300863 -8.256387 11.820192 -0.915516 2.295960 -0.919915 -0.310330 0.344640 0.211600 -0.295210 
-0.945080 16.343240 -2.327230 1.534382 8.444368 -4.953257 -15.357035 13.417666 3.169309 10.127211 -3.697774 -14.398885 -11.227167 12.621979 34.328302 0.092877 7.459988 1.798498 0.069660 -0.180810 -0.000930 17.952235 -10.229344 3.526718 -16.450181 3.127469 -32.217454 14.565018 -12.607151 35.977269 -0.437174 -6.034113 2.274304 -0.071150 0.047300 -0.258670 -2.980962 -2.518385 -8.508175 0.483265 -1.779108 16.006290 -0.785107 -0.880648 -2.856339 1.223025 -4.076104 -9.705111 -11.736070 3.807869 47.406465 11.246600 -4.247410 -9.462920 -33.994023 -9.102065 3.485209 -55.849697 -3.868640 -13.856580 39.640352 -45.498897 -19.540474 -3.363117 2.501133 0.607840 -0.187650 -0.161890 -0.068030 32.470743 13.670549 6.526929 50.230655 0.146537 -7.437301 -8.099851 13.050895 -1.151410 2.277817 -0.937791 -0.332660 0.323400 0.255470 -0.300450 
-1.008030 16.345200 -2.255390 1.258409 7.179830 -4.581769 -15.443977 13.490930 2.968236 10.346604 -3.172622 -14.293498 -9.338534 11.702986 33.289121 -0.013981 7.082639 1.943154 0.025110 -0.238870 -0.006590 17.874302 -10.269539 3.517562 -16.658044 3.175438 -31.216220 15.943544 -12.616571 34.213740 -0.392238 -5.970377 2.308649 -0.093130 0.083360 -0.242720 -2.709000 -2.467785 -8.280489 -1.973061 -0.926506 14.211102 1.862100 -0.446198 -2.458248 0.920275 -2.264897 -9.020968 -7.490916 2.577467 45.813037 9.236680 -2.996360 -7.615690 -31.544108 -7.635805 3.610873 -57.955434 -3.128557 -13.461562 34.047947 -46.372898 -17.263310 -3.405669 2.516047 0.572460 -0.124290 -0.202870 -0.083700 30.982535 11.244865 5.231118 51.093176 0.944850 -7.594027 -7.589632 14.434713 -1.336624 2.254260 -0.946397 -0.351810 0.307970 0.276570 -0.317080 
-1.076010 16.345020 -2.176650 0.616766 5.856414 -4.140181 -15.486532 13.541896 2.765954 10.670053 -2.644811 -14.111740 -7.564013 10.840436 32.085334 -0.097669 6.715888 2.088103 -0.045880 -0.327930 -0.030860 17.840877 -10.331063 3.506174 -16.324030 3.332356 -30.293964 17.066583 -12.493203 32.521875 -0.333954 -5.869607 2.356147 -0.133100 0.123740 -0.229540 -2.567725 -2.338313 -8.032666 -3.622233 -0.324436 12.441768 4.308619 -0.106905 -2.445169 0.509610 -0.686725 -8.481551 -3.896450 1.594566 43.840936 7.587150 -1.969470 -5.348350 -28.720371 -5.473906 3.865426 -60.253660 -1.567234 -13.617379 27.196348 -49.506706 -15.142535 -3.449370 2.546833 0.528600 -0.062450 -0.250700 -0.105200 29.217836 8.221221 3.870562 52.382142 1.146480 -8.173150 -7.247999 16.806334 -1.588469 2.234436 -0.951414 -0.373190 0.284530 0.307660 -0.327870 
-1.149740 16.351810 -2.100380 0.003449 4.558652 -3.894000 -15.521530 13.585657 2.577023 10.762301 -2.224986 -13.880133 -5.664792 10.105618 31.665525 -0.131861 6.446150 2.199786 -0.087630 -0.377720 -0.038300 17.813335 -10.378071 3.509320 -16.073323 3.439745 -29.136256 18.703868 -12.451973 30.491185 -0.312996 -5.788584 2.397907 -0.169020 0.141400 -0.207080 -2.449174 -2.217766 -7.809531 -5.335452 0.318259 11.010472 6.928338 0.323453 -2.552214 0.070094 0.852916 -8.247127 -0.624628 0.787612 42.642491 5.881800 -0.659440 -3.529300 -25.881002 -3.435177 4.331191 -62.028711 0.318278 -13.880667 17.719241 -53.102167 -11.760601 -3.482881 2.645118 0.496040 -0.017170 -0.268800 -0.113760 27.492287 5.371229 2.671304 53.685652 1.134196 -8.781956 -7.372594 18.997393 -1.831721 2.220683 -0.966482 -0.370450 0.251280 0.314710 -0.333350 
-1.214870 16.366750 -2.032890 -0.837116 2.703274 -4.060414 -15.532073 13.645342 2.431584 11.204589 -1.787683 -13.338337 -4.204449 9.732692 31.795560 -0.127916 6.337010 2.242762 -0.092370 -0.386820 -0.016930 17.797092 -10.434099 3.509622 -15.393476 3.678879 -27.704659 20.074558 -12.281774 28.706248 -0.315613 -5.678631 2.447787 -0.185790 0.119710 -0.200770 -2.376543 -2.114459 -7.670416 -6.165215 1.022282 10.248406 9.293017 0.977724 -2.668352 -0.332579 1.886465 -8.287620 1.514273 0.315153 42.570850 4.820450 0.503240 -2.549630 -23.672602 -1.865869 4.860037 -62.875314 2.366389 -13.944010 5.269252 -56.067453 -6.479024 -3.488352 2.799056 0.487560 -0.010250 -0.261690 -0.118780 26.260282 3.363791 1.938368 54.007284 0.803424 -9.344829 -7.130363 21.043669 -1.941009 2.212529 -0.982818 -0.360410 0.219320 0.297310 -0.346180 
-1.276470 16.387210 -1.972580 -1.664915 0.589407 -4.392417 -15.564239 13.703437 2.336119 11.744002 -1.410506 -12.838717 -3.224127 9.828245 32.974133 -0.080016 6.460102 2.185897 -0.085910 -0.374990 0.020470 17.762363 -10.436175 3.503074 -14.595677 3.913970 -26.032209 21.598312 -11.995329 26.543576 -0.331964 -5.515318 2.515818 -0.200060 0.071470 -0.200880 -2.242085 -2.113203 -7.579009 -7.321508 1.781995 9.833453 12.195075 1.725981 -2.955639 -0.736974 2.757291 -8.487621 3.352223 0.079967 43.344210 4.113310 1.979590 -2.774490 -21.515793 -0.414384 5.506916 -64.055765 4.698578 -14.055042 -6.686881 -58.022925 -0.724327 -3.470367 2.924464 0.505670 -0.027430 -0.228380 -0.135250 25.138328 1.644807 1.372870 53.812704 0.378767 -9.974612 -7.078833 23.265330 -1.997148 2.204544 -0.977713 -0.345590 0.191670 0.276080 -0.365890 
-1.329250 16.398620 -1.918650 -2.288976 -1.349542 -4.614490 -15.591946 13.744914 2.246630 11.667204 -1.115311 -12.382788 -2.133618 9.828616 34.341349 -0.036738 6.610735 2.122357 -0.094000 -0.400830 0.053480 17.739288 -10.430023 3.500912 -14.125450 4.020832 -24.603155 22.917171 -11.769021 24.644997 -0.346600 -5.418696 2.546441 -0.229940 0.034720 -0.174790 -2.135469 -2.116252 -7.479884 -8.480006 2.360100 9.249864 14.815766 2.281236 -3.007727 -1.033797 3.587861 -8.834434 5.194819 -0.191805 43.949084 2.824750 3.585220 -2.373790 -19.293392 0.693647 6.337358 -65.096234 7.320581 -14.218222 -18.648436 -59.767364 5.593970 -3.463612 3.063239 0.524530 -0.029630 -0.204450 -0.158340 23.663707 0.158925 0.939658 54.011224 0.106363 -10.535895 -6.937336 25.461232 -2.007965 2.192723 -0.982802 -0.332890 0.146160 0.274180 -0.391480 
-1.366170 16.399890 -1.869720 -3.090033 -3.174781 -4.775079 -15.602046 13.797445 2.141981 11.172546 -0.878567 -11.942980 -0.428930 9.445535 35.658590 -0.003667 6.666738 2.103885 -0.110680 -0.428670 0.075910 17.730610 -10.414629 3.552342 -13.978710 4.115703 -23.433378 24.640462 -11.850405 23.244230 -0.380919 -5.459965 2.536572 -0.256740 0.008360 -0.168970 -2.077652 -2.140398 -7.426027 -8.776874 2.620125 8.868293 16.886743 2.657109 -3.230922 -1.256281 4.029510 -9.067232 6.278171 -0.223948 44.504161 1.478260 5.132760 -1.811010 -17.066185 2.175043 6.989254 -65.664444 10.056427 -13.926349 -31.409263 -60.519220 12.905659 -3.450442 3.178640 0.533970 -0.030890 -0.191830 -0.176940 21.974753 -1.534651 0.447779 54.068488 0.028062 -10.809137 -6.482715 27.246664 -1.889269 2.193486 -0.976526 -0.330790 0.119100 0.271700 -0.411620 
-1.403310 16.414670 -1.826310 -3.534926 -5.183411 -5.173805 -15.622538 13.898200 2.056137 10.440049 -0.553625 -11.139502 1.306802 8.933217 36.554812 0.036170 6.648742 2.114179 -0.116110 -0.439000 0.100390 17.699071 -10.409847 3.605218 -14.037271 4.222078 -22.255108 25.982763 -11.944218 22.377650 -0.429561 -5.511579 2.526045 -0.281870 -0.027610 -0.173920 -1.964808 -2.237671 -7.418731 -9.360806 2.898926 8.750235 18.839674 3.128494 -3.826485 -1.532555 3.855536 -9.432145 6.107990 0.030900 46.746375 0.949250 6.194050 -1.495610 -15.674534 3.386680 7.653272 -65.235273 13.322566 -13.681470 -43.024164 -60.176060 19.540541 -3.408147 3.240640 0.561430 -0.055880 -0.159060 -0.188420 21.295557 -2.451867 0.365602 53.416280 -0.836833 -11.438940 -6.538947 29.387530 -1.829085 2.192066 -0.961197 -0.323870 0.108200 0.259710 -0.423810 
-1.438750 16.427620 -1.782700 -3.606332 -6.770766 -5.549218 -15.650098 13.983523 1.978398 9.209676 -0.277011 -10.191834 3.108358 8.216352 37.024026 0.062403 6.561080 2.147583 -0.125840 -0.450010 0.111460 17.669063 -10.371031 3.660625 -14.565120 4.215199 -21.168353 27.562232 -12.123429 21.438812 -0.481182 -5.616878 2.493225 -0.307700 -0.052980 -0.169410 -1.853029 -2.386945 -7.387524 -10.442245 3.097125 8.467105 20.639394 3.436422 -4.276871 -1.717790 3.819856 -9.772136 6.193425 0.422632 48.608187 0.641180 7.407020 -1.281530 -14.216333 4.478070 8.304856 -64.188066 16.522326 -12.986762 -54.855275 -58.706871 25.844154 -3.385753 3.296344 0.582920 -0.070360 -0.133630 -0.202700 20.361169 -3.510793 0.301017 53.024476 -1.811952 -12.008433 -5.969269 31.470058 -1.614166 2.184224 -0.949251 -0.313220 0.091250 0.259220 -0.432740 
